<svg xmlns="http://www.w3.org/2000/svg" width="57.063" height="23.754" viewBox="0 0 57.063 23.754">
  <g id="Logotyp" transform="translate(495.739 513.321)">
    <g id="Group_1" data-name="Group 1" transform="translate(-495.74 -507.563)">
      <path id="Path_1" data-name="Path 1" d="M-371.373-475.1h-.31L-377.7-461.3l-5.6-12.36a3.67,3.67,0,0,1-.768.081,3.659,3.659,0,0,1-.823-.094l-5.509,12.64v-14.1h-.31l-8.52,9.5-8.649-9.5h-.284v10.914c-.641-1.686-2.182-2.68-4.466-3.659l-.9-.387c-1.549-.671-2.22-1.11-2.22-2.195a1.573,1.573,0,0,1,1.73-1.549,2.426,2.426,0,0,1,2.278,1.471l2.7-2a5.313,5.313,0,0,0-4.975-2.622c-3.228,0-5.293,2.066-5.293,4.777,0,2.943,1.73,4.338,4.338,5.448l.9.387c1.652.723,2.634,1.162,2.634,2.4,0,1.033-.955,1.781-2.453,1.781a3.933,3.933,0,0,1-3.563-2.194l-2.943,1.7a6.944,6.944,0,0,0,6.584,3.692c2.7,0,4.854-1.1,5.654-3.151v2.918h3.46v-6.584c0-1.188-.129-3.072-.129-3.072a31,31,0,0,0,1.885,2.479l3.486,3.9h.336l3.486-3.9a30.974,30.974,0,0,0,1.885-2.479s-.129,1.885-.129,3.072v6.584h5.385l.826-1.988h7.126l.826,1.988h3.808l.826-1.988h7.126l.826,1.988h3.8Zm-15.091,12.7,1.265-3.047a31.818,31.818,0,0,0,1.033-3.15s.542,1.911,1.058,3.15l1.265,3.047Zm12.587,0,1.265-3.047a31.857,31.857,0,0,0,1.033-3.15s.542,1.911,1.059,3.15l1.265,3.047Z" transform="translate(420.405 475.155)" fill="#101010"/>
    </g>
    <g id="Group_2" data-name="Group 2" transform="translate(-463.075 -513.321)">
      <path id="Path_2" data-name="Path 2" d="M-200.238-511.152a1.5,1.5,0,0,0-1.5,1.5,1.5,1.5,0,0,0,1.5,1.5,1.5,1.5,0,0,0,1.5-1.5,1.5,1.5,0,0,0-1.5-1.5m0,5.169a3.673,3.673,0,0,1-3.669-3.669,3.673,3.673,0,0,1,3.669-3.669,3.673,3.673,0,0,1,3.669,3.669,3.673,3.673,0,0,1-3.669,3.669" transform="translate(203.907 513.321)" fill="#f07400"/>
    </g>
  </g>
</svg>
