<svg xmlns="http://www.w3.org/2000/svg" width="124.5" height="40.989" viewBox="0 0 124.5 40.989">
  <g id="Logotyp" transform="translate(541.188 513.321)">
    <g id="Group_1" data-name="Group 1" transform="translate(-517.128 -505.718)">
      <path id="Path_1" data-name="Path 1" d="M-355.668-475.087h-.409l-7.945,18.228-7.4-16.319a4.843,4.843,0,0,1-1.014.108,4.834,4.834,0,0,1-1.086-.124l-7.274,16.688v-18.615h-.409l-11.249,12.545-11.42-12.545h-.375v14.41c-.846-2.226-2.881-3.538-5.9-4.831l-1.193-.511c-2.045-.886-2.931-1.466-2.931-2.9A2.076,2.076,0,0,1-411.985-471a3.2,3.2,0,0,1,3.008,1.942l3.561-2.639a7.015,7.015,0,0,0-6.568-3.462c-4.261,0-6.988,2.727-6.988,6.307,0,3.886,2.284,5.727,5.727,7.193l1.193.511c2.182.955,3.477,1.534,3.477,3.17,0,1.364-1.261,2.352-3.238,2.352a5.193,5.193,0,0,1-4.7-2.9l-3.886,2.25c1.4,2.761,4.261,4.875,8.693,4.875,3.563,0,6.409-1.453,7.465-4.16v3.853h4.568v-8.693c0-1.568-.171-4.057-.171-4.057a40.925,40.925,0,0,0,2.489,3.272l4.6,5.148h.443l4.6-5.148a40.9,40.9,0,0,0,2.489-3.272s-.171,2.489-.171,4.057v8.693h7.11l1.091-2.625h9.408l1.091,2.625h5.028l1.091-2.625h9.408l1.091,2.625h5.011Zm-19.925,16.772,1.67-4.022a42,42,0,0,0,1.364-4.159s.716,2.522,1.4,4.159l1.67,4.022Zm16.618,0,1.67-4.022a42.063,42.063,0,0,0,1.364-4.159s.716,2.522,1.4,4.159l1.67,4.022Z" transform="translate(420.405 475.155)" fill="#1c1c1b"/>
    </g>
    <g id="Group_2" data-name="Group 2" transform="translate(-474.001 -513.321)">
      <path id="Path_2" data-name="Path 2" d="M-199.063-510.457a1.983,1.983,0,0,0-1.98,1.98,1.983,1.983,0,0,0,1.98,1.981,1.983,1.983,0,0,0,1.981-1.981,1.983,1.983,0,0,0-1.981-1.98m0,6.825a4.85,4.85,0,0,1-4.844-4.844,4.85,4.85,0,0,1,4.844-4.844,4.849,4.849,0,0,1,4.844,4.844,4.849,4.849,0,0,1-4.844,4.844" transform="translate(203.907 513.321)" fill="#f18e00"/>
    </g>
    <g id="Group_3" data-name="Group 3" transform="translate(-541.188 -478.907)">
      <path id="Path_3" data-name="Path 3" d="M-538.917-334.083h.84l2.27,5.2h-.958l-.523-1.246h-2.44l-.531,1.246h-.929Zm1.3,3.147-.892-2.064-.884,2.064Z" transform="translate(541.188 335.373)" fill="#1c1c1b"/>
      <path id="Path_4" data-name="Path 4" d="M-512.475-321.539h2.182v.877h-2.182Z" transform="translate(518.195 325.328)" fill="#1c1c1b"/>
      <path id="Path_5" data-name="Path 5" d="M-496.122-333.9h.907v2.595l2.454-2.595h1.113l-2.145,2.219,2.241,2.941h-1.1l-1.762-2.322-.8.825v1.5h-.907Z" transform="translate(505.099 335.225)" fill="#1c1c1b"/>
      <path id="Path_6" data-name="Path 6" d="M-469.764-334.083h.84l2.27,5.2h-.958l-.523-1.246h-2.44l-.531,1.246h-.929Zm1.3,3.147-.892-2.064-.884,2.064Z" transform="translate(485.809 335.373)" fill="#1c1c1b"/>
      <path id="Path_7" data-name="Path 7" d="M-442.768-329.787l.546-.648a2.376,2.376,0,0,0,1.629.671c.56,0,.914-.258.914-.649v-.015c0-.368-.206-.568-1.164-.789-1.1-.265-1.718-.59-1.718-1.541v-.015a1.578,1.578,0,0,1,1.762-1.5,2.86,2.86,0,0,1,1.872.649l-.486.686a2.343,2.343,0,0,0-1.4-.531c-.531,0-.84.273-.84.612v.015c0,.4.236.575,1.224.811,1.091.265,1.658.656,1.658,1.511v.015c0,.966-.759,1.54-1.843,1.54A3.178,3.178,0,0,1-442.768-329.787Z" transform="translate(462.373 335.521)" fill="#1c1c1b"/>
      <path id="Path_8" data-name="Path 8" d="M-419.458-329.787l.545-.648a2.376,2.376,0,0,0,1.629.671c.56,0,.914-.258.914-.649v-.015c0-.368-.206-.568-1.165-.789-1.1-.265-1.717-.59-1.717-1.541v-.015a1.578,1.578,0,0,1,1.762-1.5,2.86,2.86,0,0,1,1.872.649l-.486.686a2.343,2.343,0,0,0-1.4-.531c-.531,0-.84.273-.84.612v.015c0,.4.236.575,1.223.811,1.091.265,1.659.656,1.659,1.511v.015c0,.966-.759,1.54-1.843,1.54A3.178,3.178,0,0,1-419.458-329.787Z" transform="translate(443.707 335.521)" fill="#1c1c1b"/>
      <path id="Path_9" data-name="Path 9" d="M-394.543-334.083h.84l2.27,5.2h-.958l-.523-1.246h-2.44l-.531,1.246h-.929Zm1.3,3.147-.892-2.064-.884,2.064Z" transform="translate(425.573 335.373)" fill="#1c1c1b"/>
      <path id="Path_10" data-name="Path 10" d="M-354.265-333.9h3.84v.826h-2.934v1.408h2.6v.825h-2.6v2.1h-.907Z" transform="translate(391.5 335.225)" fill="#1c1c1b"/>
      <path id="Path_11" data-name="Path 11" d="M-331.361-336.638v-.015a2.644,2.644,0,0,1,2.7-2.668,2.619,2.619,0,0,1,2.69,2.654v.015a2.644,2.644,0,0,1-2.7,2.668A2.619,2.619,0,0,1-331.361-336.638Zm4.445,0v-.015a1.768,1.768,0,0,0-1.754-1.835,1.744,1.744,0,0,0-1.74,1.821v.015a1.768,1.768,0,0,0,1.754,1.835A1.744,1.744,0,0,0-326.916-336.638Zm-2.963-3.921h.921v.826h-.921Zm1.518,0h.914v.826h-.914Z" transform="translate(373.159 340.559)" fill="#1c1c1b"/>
      <path id="Path_12" data-name="Path 12" d="M-298.765-333.9h2.3a2.079,2.079,0,0,1,1.489.516,1.56,1.56,0,0,1,.427,1.113v.015a1.548,1.548,0,0,1-1.231,1.563l1.393,1.953h-1.069l-1.268-1.8h-1.135v1.8h-.907Zm2.233,2.558c.649,0,1.061-.339,1.061-.862v-.015c0-.553-.4-.855-1.069-.855h-1.319v1.732Z" transform="translate(347.056 335.225)" fill="#1c1c1b"/>
      <path id="Path_13" data-name="Path 13" d="M-262.653-329.787l.545-.648a2.376,2.376,0,0,0,1.629.671c.56,0,.914-.258.914-.649v-.015c0-.368-.206-.568-1.164-.789-1.1-.265-1.718-.59-1.718-1.541v-.015a1.578,1.578,0,0,1,1.762-1.5,2.86,2.86,0,0,1,1.872.649l-.486.686a2.343,2.343,0,0,0-1.4-.531c-.531,0-.84.273-.84.612v.015c0,.4.236.575,1.224.811,1.091.265,1.658.656,1.658,1.511v.015c0,.966-.759,1.54-1.843,1.54A3.177,3.177,0,0,1-262.653-329.787Z" transform="translate(318.137 335.521)" fill="#1c1c1b"/>
      <path id="Path_14" data-name="Path 14" d="M-237.234-333.9h.966l1.57,2.44,1.57-2.44h.966v5.16h-.907v-3.7l-1.629,2.432h-.029l-1.614-2.418v3.686h-.892Z" transform="translate(297.782 335.225)" fill="#1c1c1b"/>
      <path id="Path_15" data-name="Path 15" d="M-204.649-339.485a.824.824,0,0,1,.877.781.732.732,0,0,1-.324.6l2.138,4.887h-.958l-.523-1.246h-2.44l-.531,1.246h-.929l2.13-4.887a.744.744,0,0,1-.317-.6A.824.824,0,0,1-204.649-339.485Zm.877,4.223-.892-2.064-.885,2.064Zm-.877-3.015a.446.446,0,0,0,.479-.427.442.442,0,0,0-.479-.428.435.435,0,0,0-.472.428A.439.439,0,0,0-204.649-338.276Z" transform="translate(273.842 339.699)" fill="#1c1c1b"/>
      <path id="Path_16" data-name="Path 16" d="M-175.889-333.9h3.84v.826h-2.934v1.408h2.6v.825h-2.6v2.1h-.907Z" transform="translate(248.657 335.225)" fill="#1c1c1b"/>
      <path id="Path_17" data-name="Path 17" d="M-152.985-336.638v-.015a2.644,2.644,0,0,1,2.7-2.668,2.619,2.619,0,0,1,2.69,2.654v.015a2.644,2.644,0,0,1-2.7,2.668A2.619,2.619,0,0,1-152.985-336.638Zm4.445,0v-.015a1.768,1.768,0,0,0-1.754-1.835,1.744,1.744,0,0,0-1.74,1.821v.015a1.768,1.768,0,0,0,1.754,1.835A1.744,1.744,0,0,0-148.54-336.638Zm-2.963-3.921h.921v.826h-.921Zm1.518,0h.914v.826h-.914Z" transform="translate(230.315 340.559)" fill="#1c1c1b"/>
      <path id="Path_18" data-name="Path 18" d="M-120.39-333.9h2.3a2.079,2.079,0,0,1,1.489.516,1.56,1.56,0,0,1,.427,1.113v.015a1.548,1.548,0,0,1-1.231,1.563l1.393,1.953h-1.069l-1.268-1.8h-1.135v1.8h-.907Zm2.233,2.558c.649,0,1.061-.339,1.061-.862v-.015c0-.553-.4-.855-1.069-.855h-1.319v1.732Z" transform="translate(204.213 335.225)" fill="#1c1c1b"/>
      <path id="Path_19" data-name="Path 19" d="M-93.639-333.9h3.825v.811h-2.919v1.342h2.587v.811h-2.587v1.386h2.956v.811h-3.862Z" transform="translate(182.791 335.225)" fill="#1c1c1b"/>
      <path id="Path_20" data-name="Path 20" d="M-69.062-333.058H-70.7v-.84h4.186v.84h-1.636v4.319h-.914Z" transform="translate(164.42 335.225)" fill="#1c1c1b"/>
      <path id="Path_21" data-name="Path 21" d="M-48.153-334.083h.84l2.27,5.2H-46l-.523-1.246h-2.44l-.531,1.246h-.929Zm1.3,3.147L-47.747-333l-.885,2.064Z" transform="translate(148.184 335.373)" fill="#1c1c1b"/>
      <path id="Path_22" data-name="Path 22" d="M-21.711-331.659v-.015a2.629,2.629,0,0,1,2.661-2.668,2.787,2.787,0,0,1,1.983.7l-.575.686a2.021,2.021,0,0,0-1.445-.553,1.745,1.745,0,0,0-1.673,1.821v.015a1.723,1.723,0,0,0,1.754,1.843,2.106,2.106,0,0,0,1.246-.391v-.966h-1.32v-.789h2.2v2.167a3.289,3.289,0,0,1-2.152.8A2.56,2.56,0,0,1-21.711-331.659Z" transform="translate(125.191 335.58)" fill="#1c1c1b"/>
      <path id="Path_23" data-name="Path 23" d="M8.494-334.083h.84l2.27,5.2h-.958l-.523-1.246H7.683l-.531,1.246H6.224Zm1.3,3.147L8.9-333l-.884,2.064Z" transform="translate(102.821 335.373)" fill="#1c1c1b"/>
      <path id="Path_24" data-name="Path 24" d="M37.674-333.9h2.3a2.079,2.079,0,0,1,1.489.516,1.559,1.559,0,0,1,.428,1.113v.015a1.548,1.548,0,0,1-1.231,1.563l1.393,1.953H40.984l-1.268-1.8H38.581v1.8h-.907Zm2.233,2.558c.649,0,1.061-.339,1.061-.862v-.015c0-.553-.4-.855-1.069-.855H38.581v1.732Z" transform="translate(77.636 335.225)" fill="#1c1c1b"/>
      <path id="Path_25" data-name="Path 25" d="M64.424-333.9h3.825v.811H65.331v1.342h2.587v.811H65.331v1.386h2.956v.811H64.424Z" transform="translate(56.214 335.225)" fill="#1c1c1b"/>
    </g>
  </g>
</svg>
