<svg xmlns="http://www.w3.org/2000/svg" width="41.032" height="41.032" viewBox="0 0 41.032 41.032">
  <g id="Group_434" data-name="Group 434" transform="translate(-86.756 -23.931)">
    <g id="Path_221" data-name="Path 221" transform="translate(86.756 23.931)" fill="none">
      <path d="M20.516,0A20.516,20.516,0,1,1,0,20.516,20.516,20.516,0,0,1,20.516,0Z" stroke="none"/>
      <path d="M 20.51595878601074 1.199996948242188 C 17.90778923034668 1.199996948242188 15.3782787322998 1.710536956787109 12.99768829345703 2.717449188232422 C 10.69769859313965 3.690258026123047 8.631847381591797 5.083179473876953 6.857509613037109 6.857509613037109 C 5.083179473876953 8.631847381591797 3.690258026123047 10.69769859313965 2.717449188232422 12.99768829345703 C 1.710536956787109 15.3782787322998 1.199996948242188 17.90778923034668 1.199996948242188 20.51595878601074 C 1.199996948242188 23.1241283416748 1.710536956787109 25.65363883972168 2.717449188232422 28.03422927856445 C 3.690258026123047 30.33421897888184 5.083179473876953 32.40007019042969 6.857509613037109 34.17440795898438 C 8.631847381591797 35.94873809814453 10.69769859313965 37.34165954589844 12.99768829345703 38.31446838378906 C 15.3782787322998 39.32138061523438 17.90778923034668 39.8319206237793 20.51595878601074 39.8319206237793 C 23.1241283416748 39.8319206237793 25.65363883972168 39.32138061523438 28.03422927856445 38.31446838378906 C 30.33421897888184 37.34165954589844 32.40007019042969 35.94873809814453 34.17440795898438 34.17440795898438 C 35.94873809814453 32.40007019042969 37.34165954589844 30.33421897888184 38.31446838378906 28.03422927856445 C 39.32138061523438 25.65363883972168 39.8319206237793 23.1241283416748 39.8319206237793 20.51595878601074 C 39.8319206237793 17.90778923034668 39.32138061523438 15.3782787322998 38.31446838378906 12.99768829345703 C 37.34165954589844 10.69769859313965 35.94873809814453 8.631847381591797 34.17440795898438 6.857509613037109 C 32.40007019042969 5.083179473876953 30.33421897888184 3.690258026123047 28.03422927856445 2.717449188232422 C 25.65363883972168 1.710536956787109 23.1241283416748 1.199996948242188 20.51595878601074 1.199996948242188 M 20.51595878601074 0 C 31.84660911560059 0 41.03191757202148 9.185308456420898 41.03191757202148 20.51595878601074 C 41.03191757202148 31.84660911560059 31.84660911560059 41.03191757202148 20.51595878601074 41.03191757202148 C 9.185308456420898 41.03191757202148 0 31.84660911560059 0 20.51595878601074 C 0 9.185308456420898 9.185308456420898 0 20.51595878601074 0 Z" stroke="none" fill="#f18e00"/>
    </g>
    <g id="noun_Piggy_Bank_292190" data-name="noun_Piggy Bank_292190" transform="translate(-178.717 -845.498)">
      <g id="Group_286" data-name="Group 286" transform="translate(275 878.243)">
        <g id="Group_285" data-name="Group 285">
          <g id="Group_284" data-name="Group 284">
            <path id="Path_218" data-name="Path 218" d="M26.507,5.31A2.288,2.288,0,0,1,26.4,4.6a2.2,2.2,0,1,1,4.4,0,2.393,2.393,0,0,1-.355,1.207,8.831,8.831,0,0,1,1.029.39A3.454,3.454,0,0,0,31.9,4.6a3.3,3.3,0,1,0-6.6,0,3.025,3.025,0,0,0,.106.816C25.761,5.381,26.116,5.346,26.507,5.31Z" transform="translate(-16.321 -1.3)" fill="#f18e00"/>
            <circle id="Ellipse_42" data-name="Ellipse 42" cx="0.745" cy="0.745" r="0.745" transform="translate(5.288 9.192)" fill="#f18e00"/>
            <path id="Path_219" data-name="Path 219" d="M22.713,16.62a.546.546,0,0,0-.532-.532.523.523,0,0,0-.532.532,2.433,2.433,0,0,1-2.236,2.413c-.781-3.478-4.33-6.1-8.624-6.1a10.319,10.319,0,0,0-2.342.284,3.626,3.626,0,0,0-5.359-.248,1.021,1.021,0,0,0-.319.745.967.967,0,0,0,.319.745l1.065,1.029a9.417,9.417,0,0,0-1.7,2.555H1.6A1.652,1.652,0,0,0,0,19.566v2.2a1.747,1.747,0,0,0,1.6,1.6H2.626a20.229,20.229,0,0,0,1.207,1.7l-.71,2.555A1.036,1.036,0,0,0,3.868,28.9l3.655.958a.781.781,0,0,0,.284.035,1.1,1.1,0,0,0,1.029-.781l.355-1.349a11.544,11.544,0,0,0,1.562.106c.39,0,.816-.035,1.207-.071l.355,1.278a1.068,1.068,0,0,0,1.029.781.781.781,0,0,0,.284-.035l3.655-.994a1,1,0,0,0,.639-.5,1.087,1.087,0,0,0,.106-.816l-.6-2.307a6.753,6.753,0,0,0,2.129-4.9v-.355A3.3,3.3,0,0,0,22.713,16.62Zm-6.459,8.3.781,2.91-3.655.994-.6-2.236a9.215,9.215,0,0,1-1.987.213,8.485,8.485,0,0,1-2.342-.319l-.6,2.307L4.188,27.8l.852-3.088a7.713,7.713,0,0,1-1.668-2.449H1.6a.736.736,0,0,1-.532-.532v-2.2c0-.213.355-.461.532-.461h1.6a6.281,6.281,0,0,1,2.484-3.584L3.8,13.6a2.547,2.547,0,0,1,1.81-.745A2.6,2.6,0,0,1,7.95,14.349a9.1,9.1,0,0,1,2.8-.461c4.259,0,7.7,2.875,7.7,6.424A5.736,5.736,0,0,1,16.254,24.925Z" transform="translate(0 -8.138)" fill="#f18e00"/>
          </g>
        </g>
      </g>
    </g>
  </g>
</svg>
