<svg xmlns="http://www.w3.org/2000/svg" width="18" height="12.254" viewBox="0 0 18 12.254">
  <g id="Group_517" data-name="Group 517" transform="translate(-2867.766 -352.229)">
    <g id="Rectangle_251" data-name="Rectangle 251" transform="translate(2867.766 357.721)">
      <path id="Path_261" data-name="Path 261" d="M2868.466,359.275h16.6a.67.67,0,0,1,.7.635h0a.67.67,0,0,1-.7.635h-16.6a.671.671,0,0,1-.7-.635h0A.67.67,0,0,1,2868.466,359.275Z" transform="translate(-2867.766 -359.275)" fill="#fff"/>
      <path id="Path_262" data-name="Path 262" d="M2868.466,359.775h16.6a.191.191,0,0,1,.2.182h0a.191.191,0,0,1-.2.182h-16.6a.192.192,0,0,1-.2-.182h0A.191.191,0,0,1,2868.466,359.775Z" transform="translate(-2867.766 -359.321)" fill="none" stroke="#1c1c1b" stroke-width="1"/>
    </g>
    <g id="Rectangle_252" data-name="Rectangle 252" transform="translate(2867.766 352.275)">
      <path id="Path_263" data-name="Path 263" d="M2868.466,353.275h16.6a.67.67,0,0,1,.7.635h0a.67.67,0,0,1-.7.635h-16.6a.671.671,0,0,1-.7-.635h0A.67.67,0,0,1,2868.466,353.275Z" transform="translate(-2867.766 -353.275)" fill="#fff"/>
      <path id="Path_264" data-name="Path 264" d="M2868.466,353.775h16.6a.191.191,0,0,1,.2.182h0a.191.191,0,0,1-.2.181h-16.6a.192.192,0,0,1-.2-.181h0A.191.191,0,0,1,2868.466,353.775Z" transform="translate(-2867.766 -353.321)" fill="none" stroke="#1c1c1b" stroke-width="1"/>
    </g>
    <g id="Rectangle_253" data-name="Rectangle 253" transform="translate(2867.766 363.166)">
      <path id="Path_265" data-name="Path 265" d="M2868.466,364.275h16.6a.67.67,0,0,1,.7.635h0a.67.67,0,0,1-.7.635h-16.6a.671.671,0,0,1-.7-.635h0A.67.67,0,0,1,2868.466,364.275Z" transform="translate(-2867.766 -364.275)" fill="#fff"/>
      <path id="Path_266" data-name="Path 266" d="M2868.466,364.775h16.6a.191.191,0,0,1,.2.182h0a.192.192,0,0,1-.2.182h-16.6a.192.192,0,0,1-.2-.182h0A.191.191,0,0,1,2868.466,364.775Z" transform="translate(-2867.766 -364.321)" fill="none" stroke="#1c1c1b" stroke-width="1"/>
    </g>
  </g>
</svg>
