<svg xmlns="http://www.w3.org/2000/svg" width="41.032" height="41.032" viewBox="0 0 41.032 41.032">
  <g id="Group_433" data-name="Group 433" transform="translate(-86.741 -23.931)">
    <g id="Path_221" data-name="Path 221" transform="translate(86.741 23.931)" fill="none">
      <path d="M20.516,0A20.516,20.516,0,1,1,0,20.516,20.516,20.516,0,0,1,20.516,0Z" stroke="none"/>
      <path d="M 20.51595878601074 1.199996948242188 C 17.90778923034668 1.199996948242188 15.3782787322998 1.710536956787109 12.99768829345703 2.717449188232422 C 10.69769859313965 3.690258026123047 8.631847381591797 5.083179473876953 6.857509613037109 6.857509613037109 C 5.083179473876953 8.631847381591797 3.690258026123047 10.69769859313965 2.717449188232422 12.99768829345703 C 1.710536956787109 15.3782787322998 1.199996948242188 17.90778923034668 1.199996948242188 20.51595878601074 C 1.199996948242188 23.1241283416748 1.710536956787109 25.65363883972168 2.717449188232422 28.03422927856445 C 3.690258026123047 30.33421897888184 5.083179473876953 32.40007019042969 6.857509613037109 34.17440795898438 C 8.631847381591797 35.94873809814453 10.69769859313965 37.34165954589844 12.99768829345703 38.31446838378906 C 15.3782787322998 39.32138061523438 17.90778923034668 39.8319206237793 20.51595878601074 39.8319206237793 C 23.1241283416748 39.8319206237793 25.65363883972168 39.32138061523438 28.03422927856445 38.31446838378906 C 30.33421897888184 37.34165954589844 32.40007019042969 35.94873809814453 34.17440795898438 34.17440795898438 C 35.94873809814453 32.40007019042969 37.34165954589844 30.33421897888184 38.31446838378906 28.03422927856445 C 39.32138061523438 25.65363883972168 39.8319206237793 23.1241283416748 39.8319206237793 20.51595878601074 C 39.8319206237793 17.90778923034668 39.32138061523438 15.3782787322998 38.31446838378906 12.99768829345703 C 37.34165954589844 10.69769859313965 35.94873809814453 8.631847381591797 34.17440795898438 6.857509613037109 C 32.40007019042969 5.083179473876953 30.33421897888184 3.690258026123047 28.03422927856445 2.717449188232422 C 25.65363883972168 1.710536956787109 23.1241283416748 1.199996948242188 20.51595878601074 1.199996948242188 M 20.51595878601074 0 C 31.84660911560059 0 41.03191757202148 9.185308456420898 41.03191757202148 20.51595878601074 C 41.03191757202148 31.84660911560059 31.84660911560059 41.03191757202148 20.51595878601074 41.03191757202148 C 9.185308456420898 41.03191757202148 0 31.84660911560059 0 20.51595878601074 C 0 9.185308456420898 9.185308456420898 0 20.51595878601074 0 Z" stroke="none" fill="#f18e00"/>
    </g>
    <g id="noun_Umbrella_732929" transform="translate(93.142 29.802)">
      <g id="Group_298" data-name="Group 298" transform="translate(6 6)">
        <path id="Path_222" data-name="Path 222" d="M14.91,6.659V6.636a.636.636,0,1,0-1.273,0v.023C9.372,6.935,6,9.958,6,13.637a.637.637,0,0,0,.636.636h.111a.636.636,0,0,0,.6-.424,1.271,1.271,0,0,1,2.259-.278.636.636,0,0,0,1.06,0,1.271,1.271,0,0,1,2.259.278.636.636,0,0,0,.6.424h.111v6.364a.636.636,0,1,1-1.273,0,.636.636,0,1,0-1.273,0,1.909,1.909,0,0,0,3.818,0V14.273h.111a.636.636,0,0,0,.6-.424,1.271,1.271,0,0,1,2.259-.279.636.636,0,0,0,1.06,0,1.271,1.271,0,0,1,2.26.278.636.636,0,0,0,.6.424h.111a.637.637,0,0,0,.636-.636C22.547,9.958,19.175,6.935,14.91,6.659ZM20,11.728a2.538,2.538,0,0,0-1.591.558A2.543,2.543,0,0,0,14.616,13H13.93a2.543,2.543,0,0,0-3.793-.714,2.54,2.54,0,0,0-2.54-.374c.9-2.318,3.55-4,6.676-4s5.78,1.685,6.676,4A2.535,2.535,0,0,0,20,11.728Z" transform="translate(-6 -6)" fill="#f18e00"/>
      </g>
    </g>
  </g>
</svg>
