<svg xmlns="http://www.w3.org/2000/svg" width="19" height="11.5" viewBox="0 0 19 11.5">
  <g id="Group_405" data-name="Group 405" transform="translate(-268 -29)">
    <g id="Rectangle_189" data-name="Rectangle 189" transform="translate(268 29)" fill="#1c1c1b" stroke="#1c1c1b" stroke-width="1">
      <rect width="19" height="2" rx="1" stroke="none"/>
      <rect x="0.5" y="0.5" width="18" height="1" rx="0.5" fill="none"/>
    </g>
    <g id="Rectangle_190" data-name="Rectangle 190" transform="translate(268 34)" fill="#1c1c1b" stroke="#1c1c1b" stroke-width="1">
      <rect width="19" height="2" rx="1" stroke="none"/>
      <rect x="0.5" y="0.5" width="18" height="1" rx="0.5" fill="none"/>
    </g>
    <g id="Path_235" data-name="Path 235" transform="translate(268.423 38.731)" fill="#1c1c1b">
      <path d="M 17.69231224060059 1.269235372543335 L 0.8846116662025452 1.269235372543335 C 0.6725416779518127 1.269235372543335 0.5000016689300537 1.096695303916931 0.5000016689300537 0.8846153616905212 C 0.5000016689300537 0.6725353598594666 0.6725416779518127 0.4999953508377075 0.8846116662025452 0.4999953508377075 L 17.69231224060059 0.4999953508377075 C 17.90438079833984 0.4999953508377075 18.0769214630127 0.6725353598594666 18.0769214630127 0.8846153616905212 C 18.0769214630127 1.096695303916931 17.90438079833984 1.269235372543335 17.69231224060059 1.269235372543335 Z" stroke="none"/>
      <path d="M 0.8846111297607422 -4.649162292480469e-06 L 17.69230079650879 -4.649162292480469e-06 C 18.18086242675781 -4.649162292480469e-06 18.5769214630127 0.3960553407669067 18.5769214630127 0.8846153616905212 C 18.5769214630127 1.373175382614136 18.18086242675781 1.769235372543335 17.69230079650879 1.769235372543335 L 0.8846111297607422 1.769235372543335 C 0.3960514068603516 1.769235372543335 1.9073486328125e-06 1.373175382614136 1.9073486328125e-06 0.8846153616905212 C 1.9073486328125e-06 0.3960553407669067 0.3960514068603516 -4.649162292480469e-06 0.8846111297607422 -4.649162292480469e-06 Z" stroke="none" fill="#1c1c1b"/>
    </g>
  </g>
</svg>
