<svg xmlns="http://www.w3.org/2000/svg" width="10.828" height="12.442" viewBox="0 0 10.828 12.442">
  <g id="Group_519" data-name="Group 519" transform="translate(-2886.671 -353.275)">
    <g id="Group_516" data-name="Group 516">
      <g id="Ellipse_49" data-name="Ellipse 49">
        <g id="Group_511" data-name="Group 511">
          <circle id="Ellipse_55" data-name="Ellipse 55" cx="2.707" cy="2.707" r="2.707" transform="translate(2889.373 353.275)" fill="none"/>
        </g>
        <g id="Group_512" data-name="Group 512">
          <path id="Path_257" data-name="Path 257" d="M2892.08,358.689a2.707,2.707,0,1,1,2.707-2.707A2.707,2.707,0,0,1,2892.08,358.689Zm0-4.115a1.408,1.408,0,1,0,1.408,1.408h0a1.408,1.408,0,0,0-1.408-1.408Z" fill="#1c1c1b"/>
        </g>
      </g>
      <g id="Ellipse_54" data-name="Ellipse 54">
        <g id="Group_513" data-name="Group 513">
          <path id="Path_258" data-name="Path 258" d="M2897.5,365.186a4.5,4.5,0,0,1-.032.531H2886.7a3.906,3.906,0,0,1-.033-.531,5.406,5.406,0,0,1,9.236-3.822,5.146,5.146,0,0,1,.509.585,5.4,5.4,0,0,1,.433.661c.075.152.151.314.227.466a6.531,6.531,0,0,1,.314,1.018A6.136,6.136,0,0,1,2897.5,365.186Z" fill="none"/>
        </g>
        <g id="Group_514" data-name="Group 514">
          <path id="Path_259" data-name="Path 259" d="M2897.39,364.092a6.529,6.529,0,0,0-.314-1.018c-.076-.152-.152-.314-.227-.466a5.29,5.29,0,0,0-.433-.661,5.152,5.152,0,0,0-.509-.585,5.406,5.406,0,0,0-9.236,3.822,4.26,4.26,0,0,0,.033.531h1.418a2.851,2.851,0,0,1-.043-.531,4.006,4.006,0,1,1,8.013,0h0a2.872,2.872,0,0,1-.043.531h1.418a4.3,4.3,0,0,0,.032-.531A6.046,6.046,0,0,0,2897.39,364.092Z" fill="#1c1c1b"/>
        </g>
      </g>
    </g>
  </g>
</svg>
