<svg xmlns="http://www.w3.org/2000/svg" width="41.032" height="41.032" viewBox="0 0 41.032 41.032">
  <g id="Group_435" data-name="Group 435" transform="translate(-86.771 -23.931)">
    <g id="Path_221" data-name="Path 221" transform="translate(86.771 23.931)" fill="none">
      <path d="M20.516,0A20.516,20.516,0,1,1,0,20.516,20.516,20.516,0,0,1,20.516,0Z" stroke="none"/>
      <path d="M 20.51595878601074 1.199996948242188 C 17.90778923034668 1.199996948242188 15.3782787322998 1.710536956787109 12.99768829345703 2.717449188232422 C 10.69769859313965 3.690258026123047 8.631847381591797 5.083179473876953 6.857509613037109 6.857509613037109 C 5.083179473876953 8.631847381591797 3.690258026123047 10.69769859313965 2.717449188232422 12.99768829345703 C 1.710536956787109 15.3782787322998 1.199996948242188 17.90778923034668 1.199996948242188 20.51595878601074 C 1.199996948242188 23.1241283416748 1.710536956787109 25.65363883972168 2.717449188232422 28.03422927856445 C 3.690258026123047 30.33421897888184 5.083179473876953 32.40007019042969 6.857509613037109 34.17440795898438 C 8.631847381591797 35.94873809814453 10.69769859313965 37.34165954589844 12.99768829345703 38.31446838378906 C 15.3782787322998 39.32138061523438 17.90778923034668 39.8319206237793 20.51595878601074 39.8319206237793 C 23.1241283416748 39.8319206237793 25.65363883972168 39.32138061523438 28.03422927856445 38.31446838378906 C 30.33421897888184 37.34165954589844 32.40007019042969 35.94873809814453 34.17440795898438 34.17440795898438 C 35.94873809814453 32.40007019042969 37.34165954589844 30.33421897888184 38.31446838378906 28.03422927856445 C 39.32138061523438 25.65363883972168 39.8319206237793 23.1241283416748 39.8319206237793 20.51595878601074 C 39.8319206237793 17.90778923034668 39.32138061523438 15.3782787322998 38.31446838378906 12.99768829345703 C 37.34165954589844 10.69769859313965 35.94873809814453 8.631847381591797 34.17440795898438 6.857509613037109 C 32.40007019042969 5.083179473876953 30.33421897888184 3.690258026123047 28.03422927856445 2.717449188232422 C 25.65363883972168 1.710536956787109 23.1241283416748 1.199996948242188 20.51595878601074 1.199996948242188 M 20.51595878601074 0 C 31.84660911560059 0 41.03191757202148 9.185308456420898 41.03191757202148 20.51595878601074 C 41.03191757202148 31.84660911560059 31.84660911560059 41.03191757202148 20.51595878601074 41.03191757202148 C 9.185308456420898 41.03191757202148 0 31.84660911560059 0 20.51595878601074 C 0 9.185308456420898 9.185308456420898 0 20.51595878601074 0 Z" stroke="none" fill="#f18e00"/>
    </g>
    <g id="noun_rules_1429140" transform="translate(422.425 -369.998)">
      <g id="Group" transform="translate(-323.2 407.8)">
        <path id="Compound_Path" data-name="Compound Path" d="M23.175,22.807a.569.569,0,0,0-.569-.569h-2.35L20.2,14.866A2.085,2.085,0,0,0,18.115,12.8H8.885A2.085,2.085,0,0,0,6.8,14.885v9.306A2.71,2.71,0,0,0,9.51,26.92H20.56a2.71,2.71,0,0,0,2.616-2.729ZM9.51,25.783A1.573,1.573,0,0,1,7.937,24.21V14.885a.948.948,0,0,1,.948-.948H18.1a.948.948,0,0,1,.948.948l.057,7.373h-7.43a.569.569,0,0,0-.569.569V24.21A1.573,1.573,0,0,1,9.51,25.783ZM22.038,24.21a1.573,1.573,0,0,1-1.573,1.573H11.728a2.691,2.691,0,0,0,.512-1.573v-.834h9.8Z" transform="translate(-6.8 -12.8)" fill="#f18e00"/>
        <rect id="Path" width="4.454" height="1.137" transform="translate(2.653 2.483)" fill="#f18e00"/>
        <rect id="Path-2" data-name="Path" width="8.245" height="1.137" transform="translate(2.653 4.757)" fill="#f18e00"/>
        <rect id="Path-3" data-name="Path" width="8.245" height="1.137" transform="translate(2.653 7.032)" fill="#f18e00"/>
      </g>
    </g>
  </g>
</svg>
