<svg xmlns="http://www.w3.org/2000/svg" width="11.099" height="12.163" viewBox="0 0 11.099 12.163">
  <g id="Group_518" data-name="Group 518" transform="translate(-2851.497 -353.275)">
    <g id="Rectangle_254" data-name="Rectangle 254">
      <path id="Path_267" data-name="Path 267" d="M2859.671,361.173l2.732,3.01a.742.742,0,0,1-.055,1.053h0a.757.757,0,0,1-1.063-.055h0l-2.732-3.01h0l1.118-1Z" fill="#1c1c1b"/>
      <path id="Path_268" data-name="Path 268" d="M2859.775,362.084l2.229,2.455a.212.212,0,0,1-.016.3h0a.216.216,0,0,1-.3-.015l-2.229-2.456a.212.212,0,0,1,.015-.3h0A.216.216,0,0,1,2859.775,362.084Z" fill="#1c1c1b" stroke="#1c1c1b" stroke-width="1"/>
    </g>
    <g id="Ellipse_56" data-name="Ellipse 56">
      <circle id="Ellipse_57" data-name="Ellipse 57" cx="5" cy="5" r="5" transform="translate(2851.497 353.275)" fill="none"/>
      <circle id="Ellipse_58" data-name="Ellipse 58" cx="4.35" cy="4.35" r="4.35" transform="translate(2852.147 353.925)" fill="none" stroke="#1c1c1b" stroke-width="1.3"/>
    </g>
  </g>
</svg>
