<svg xmlns="http://www.w3.org/2000/svg" width="13.692" height="13.692" viewBox="0 0 13.692 13.692">
  <g id="Group_519" data-name="Group 519" transform="translate(1159.577 1235.527)">
    <g id="Group_518" data-name="Group 518" transform="translate(-2933.516 -3516.258) rotate(45)">
      <g id="Rectangle_251" data-name="Rectangle 251" transform="translate(2867.766 357.721)">
        <path id="Path_261" data-name="Path 261" d="M2868.466,359.275h16.6a.67.67,0,0,1,.7.635h0a.67.67,0,0,1-.7.635h-16.6a.671.671,0,0,1-.7-.635h0A.67.67,0,0,1,2868.466,359.275Z" transform="translate(-2867.766 -359.275)" fill="#fff"/>
        <path id="Path_262" data-name="Path 262" d="M2868.466,359.775h16.6a.191.191,0,0,1,.2.182h0a.191.191,0,0,1-.2.182h-16.6a.192.192,0,0,1-.2-.182h0A.191.191,0,0,1,2868.466,359.775Z" transform="translate(-2867.766 -359.321)" fill="none" stroke="#1c1c1b" stroke-width="1"/>
      </g>
      <g id="Rectangle_251-2" data-name="Rectangle 251" transform="translate(2876.131 367.356) rotate(-90)">
        <path id="Path_261-2" data-name="Path 261" d="M2868.466,359.275h16.6a.67.67,0,0,1,.7.635h0a.67.67,0,0,1-.7.635h-16.6a.671.671,0,0,1-.7-.635h0A.67.67,0,0,1,2868.466,359.275Z" transform="translate(-2867.766 -359.275)" fill="#fff"/>
        <path id="Path_262-2" data-name="Path 262" d="M2868.466,359.775h16.6a.191.191,0,0,1,.2.182h0a.191.191,0,0,1-.2.182h-16.6a.192.192,0,0,1-.2-.182h0A.191.191,0,0,1,2868.466,359.775Z" transform="translate(-2867.766 -359.321)" fill="none" stroke="#1c1c1b" stroke-width="1"/>
      </g>
    </g>
  </g>
</svg>
