<svg xmlns="http://www.w3.org/2000/svg" width="29.274" height="28.039"><path d="M13.127 5.169a2.949 2.949 0 01-.137-.915 2.836 2.836 0 015.672 0 3.084 3.084 0 01-.457 1.555 11.382 11.382 0 011.326.5 4.451 4.451 0 00.549-2.058 4.254 4.254 0 10-8.508 0 3.9 3.9 0 00.137 1.052c.458-.043.915-.089 1.418-.134z"/><circle cx=".961" cy=".961" r=".961" transform="translate(6.815 11.847)"/><path d="M29.274 10.931a.7.7 0 00-.686-.686.674.674 0 00-.686.686 3.136 3.136 0 01-2.882 3.11c-1.006-4.483-5.58-7.867-11.115-7.867a13.3 13.3 0 00-3.019.366 4.673 4.673 0 00-6.907-.32 1.316 1.316 0 00-.412.961 1.246 1.246 0 00.412.961l1.373 1.326a12.138 12.138 0 00-2.2 3.293h-1.1A2.129 2.129 0 000 14.728v2.836a2.252 2.252 0 002.058 2.058h1.327a26.071 26.071 0 001.555 2.2l-.915 3.293a1.336 1.336 0 00.961 1.647L9.7 27.993a1.007 1.007 0 00.366.046 1.414 1.414 0 001.326-1.006l.457-1.738a14.878 14.878 0 002.013.137c.5 0 1.052-.046 1.555-.091l.457 1.647a1.377 1.377 0 001.326 1.005 1.007 1.007 0 00.364-.045l4.711-1.281a1.293 1.293 0 00.823-.64 1.4 1.4 0 00.137-1.052l-.778-2.973a8.7 8.7 0 002.743-6.314v-.457a4.25 4.25 0 004.074-4.3zm-8.325 10.7l1.006 3.751-4.711 1.281-.778-2.882a11.877 11.877 0 01-2.561.274 10.936 10.936 0 01-3.019-.412l-.778 2.973L5.4 25.34l1.1-3.979a9.941 9.941 0 01-2.15-3.156H2.058a.948.948 0 01-.686-.686v-2.837c0-.274.457-.595.686-.595h2.059a8.1 8.1 0 013.2-4.62L4.894 7.048a3.283 3.283 0 012.333-.961 3.347 3.347 0 013.019 1.921 11.73 11.73 0 013.613-.595c5.489 0 9.926 3.7 9.926 8.279a7.393 7.393 0 01-2.836 5.943z"/></svg>