<svg xmlns="http://www.w3.org/2000/svg" width="33" height="33" viewBox="0 0 33 33">
  <g id="Group_248" data-name="Group 248" transform="translate(0 0)">
    <circle id="Ellipse_38" data-name="Ellipse 38" cx="16.5" cy="16.5" r="16.5" transform="translate(0 0)" fill="rgba(241,142,0,0.25)"/>
    <path id="Facebook" d="M235.5,132.444h1.435V131.05a3.725,3.725,0,0,1,.463-2.152,2.553,2.553,0,0,1,2.228-1.045,9.031,9.031,0,0,1,2.573.258l-.358,2.127a4.868,4.868,0,0,0-1.157-.172c-.558,0-1.058.2-1.058.758v1.621h2.289l-.159,2.078h-2.13v7.216h-2.691v-7.216H235.5Z" transform="translate(-222.309 -118.299)" fill="#f18e00"/>
  </g>
</svg>
