<svg xmlns="http://www.w3.org/2000/svg" width="33" height="33" viewBox="0 0 33 33">
  <g id="Group_249" data-name="Group 249" transform="translate(-0.256)">
    <circle id="Ellipse_39" data-name="Ellipse 39" cx="16.5" cy="16.5" r="16.5" transform="translate(0.256)" fill="rgba(241,142,0,0.25)"/>
    <path id="LinkedIn" d="M132.109,191.626H129.4v-8.661h2.707Zm-1.423-9.744h-.02a1.5,1.5,0,0,1-1.614-1.5,1.649,1.649,0,1,1,1.633,1.5Zm12.25,9.744h-3.069v-4.482c0-1.173-.479-1.974-1.536-1.974a1.551,1.551,0,0,0-1.465,1.061,2.01,2.01,0,0,0-.066.708v4.687h-3.04s.04-7.939,0-8.661h3.04v1.359a2.776,2.776,0,0,1,2.7-1.442c1.922,0,3.434,1.246,3.434,3.928Z" transform="translate(-119.499 -168.413)" fill="#f18e00"/>
  </g>
</svg>
