<svg xmlns="http://www.w3.org/2000/svg" width="29.274" height="28.039" viewBox="0 0 29.274 28.039">
  <g id="noun_Piggy_Bank_292190" data-name="noun_Piggy Bank_292190" transform="translate(-277 -879.3)">
    <g id="Group_286" data-name="Group 286" transform="translate(277 879.3)">
      <g id="Group_285" data-name="Group 285">
        <g id="Group_284" data-name="Group 284">
          <path id="Path_218" data-name="Path 218" d="M26.855,6.469a2.949,2.949,0,0,1-.137-.915,2.836,2.836,0,0,1,5.672,0,3.084,3.084,0,0,1-.457,1.555,11.382,11.382,0,0,1,1.326.5,4.451,4.451,0,0,0,.549-2.058,4.254,4.254,0,1,0-8.508,0,3.9,3.9,0,0,0,.137,1.052C25.895,6.56,26.352,6.514,26.855,6.469Z" transform="translate(-13.728 -1.3)"/>
          <circle id="Ellipse_42" data-name="Ellipse 42" cx="0.961" cy="0.961" r="0.961" transform="translate(6.815 11.847)"/>
          <path id="Path_219" data-name="Path 219" d="M29.274,17.983a.7.7,0,0,0-.686-.686.674.674,0,0,0-.686.686,3.136,3.136,0,0,1-2.882,3.11c-1.006-4.483-5.58-7.867-11.115-7.867a13.3,13.3,0,0,0-3.019.366,4.673,4.673,0,0,0-6.907-.32,1.316,1.316,0,0,0-.412.961,1.246,1.246,0,0,0,.412.961L5.352,16.52a12.138,12.138,0,0,0-2.2,3.293h-1.1A2.129,2.129,0,0,0,0,21.78v2.836a2.252,2.252,0,0,0,2.058,2.058H3.385a26.071,26.071,0,0,0,1.555,2.2l-.915,3.293a1.336,1.336,0,0,0,.961,1.647L9.7,35.045a1.007,1.007,0,0,0,.366.046,1.414,1.414,0,0,0,1.326-1.006l.457-1.738a14.878,14.878,0,0,0,2.013.137c.5,0,1.052-.046,1.555-.091l.457,1.647A1.377,1.377,0,0,0,17.2,35.045,1.007,1.007,0,0,0,17.564,35l4.711-1.281a1.293,1.293,0,0,0,.823-.64,1.4,1.4,0,0,0,.137-1.052l-.778-2.973A8.7,8.7,0,0,0,25.2,22.74v-.457A4.25,4.25,0,0,0,29.274,17.983Zm-8.325,10.7,1.006,3.751-4.711,1.281-.778-2.882a11.877,11.877,0,0,1-2.561.274,10.936,10.936,0,0,1-3.019-.412l-.778,2.973L5.4,32.392l1.1-3.979a9.941,9.941,0,0,1-2.15-3.156H2.058a.948.948,0,0,1-.686-.686V21.734c0-.274.457-.595.686-.595H4.117a8.1,8.1,0,0,1,3.2-4.62L4.894,14.1a3.283,3.283,0,0,1,2.333-.961,3.347,3.347,0,0,1,3.019,1.921,11.73,11.73,0,0,1,3.613-.595c5.489,0,9.926,3.7,9.926,8.279A7.393,7.393,0,0,1,20.949,28.687Z" transform="translate(0 -7.052)"/>
        </g>
      </g>
    </g>
  </g>
</svg>
