<svg xmlns="http://www.w3.org/2000/svg" width="33" height="33" viewBox="0 0 33 33">
  <g id="Group_250" data-name="Group 250" transform="translate(0.487)">
    <circle id="Ellipse_40" data-name="Ellipse 40" cx="16.5" cy="16.5" r="16.5" transform="translate(-0.487)" fill="rgba(241,142,0,0.25)"/>
    <path id="Twitter" d="M142.961,131.6a5.7,5.7,0,0,1-1.639.449,2.851,2.851,0,0,0,1.255-1.578,5.708,5.708,0,0,1-1.812.691,2.857,2.857,0,0,0-4.862,2.6,8.1,8.1,0,0,1-5.881-2.982,2.858,2.858,0,0,0,.883,3.811,2.849,2.849,0,0,1-1.293-.356v.035a2.853,2.853,0,0,0,2.289,2.8,2.786,2.786,0,0,1-.752.1,2.824,2.824,0,0,1-.536-.051,2.852,2.852,0,0,0,2.665,1.98,5.721,5.721,0,0,1-3.543,1.222,5.844,5.844,0,0,1-.681-.039,8.116,8.116,0,0,0,12.492-6.837c0-.124,0-.248-.007-.37a5.788,5.788,0,0,0,1.424-1.477" transform="translate(-119.608 -118.261)" fill="#f18e00"/>
  </g>
</svg>
