<svg xmlns="http://www.w3.org/2000/svg" width="124.5" height="40.989"><g data-name="Group 1"><path data-name="Path 1" d="M88.797 7.671h-.409l-7.945 18.228-7.4-16.319a4.843 4.843 0 01-1.014.108 4.834 4.834 0 01-1.086-.124l-7.274 16.688V7.637h-.409L52.011 20.182 40.591 7.637h-.375v14.41c-.846-2.226-2.881-3.538-5.9-4.831l-1.193-.511c-2.045-.886-2.931-1.466-2.931-2.9a2.076 2.076 0 012.288-2.047 3.2 3.2 0 013.008 1.942l3.561-2.639a7.015 7.015 0 00-6.568-3.462c-4.261 0-6.988 2.727-6.988 6.307 0 3.886 2.284 5.727 5.727 7.193l1.193.511c2.182.955 3.477 1.534 3.477 3.17 0 1.364-1.261 2.352-3.238 2.352a5.193 5.193 0 01-4.7-2.9l-3.886 2.25c1.4 2.761 4.261 4.875 8.693 4.875 3.563 0 6.409-1.453 7.465-4.16v3.853h4.568v-8.693c0-1.568-.171-4.057-.171-4.057a40.925 40.925 0 002.489 3.272l4.6 5.148h.443l4.6-5.148a40.9 40.9 0 002.489-3.272s-.171 2.489-.171 4.057v8.693h7.11l1.091-2.625h9.408l1.091 2.625h5.028l1.091-2.625h9.408l1.091 2.625H99.4zM68.872 24.443l1.67-4.022a42 42 0 001.364-4.159s.716 2.522 1.4 4.159l1.67 4.022zm16.618 0l1.67-4.022a42.063 42.063 0 001.364-4.159s.716 2.522 1.4 4.159l1.67 4.022z" fill="#1c1c1b"/></g><g data-name="Group 2"><path data-name="Path 2" d="M72.031 2.864a1.983 1.983 0 00-1.98 1.98 1.983 1.983 0 001.98 1.981 1.983 1.983 0 001.981-1.981 1.983 1.983 0 00-1.981-1.98m0 6.825a4.85 4.85 0 01-4.844-4.844A4.85 4.85 0 0172.031.001a4.849 4.849 0 014.844 4.844 4.849 4.849 0 01-4.844 4.844" fill="#f18e00"/></g><g data-name="Group 3" fill="#1c1c1b"><path data-name="Path 3" d="M2.271 35.704h.84l2.27 5.2h-.958L3.9 39.658H1.46l-.531 1.246H0zm1.3 3.147l-.892-2.064-.884 2.064z"/><path data-name="Path 4" d="M5.72 38.203h2.182v.877H5.72z"/><path data-name="Path 5" d="M8.977 35.739h.907v2.595l2.454-2.595h1.113l-2.145 2.219 2.241 2.941h-1.1l-1.762-2.322-.8.825v1.5h-.907z"/><path data-name="Path 6" d="M16.045 35.704h.84l2.27 5.2h-.958l-.523-1.246h-2.44l-.531 1.246h-.929zm1.3 3.147l-.892-2.064-.884 2.064z"/><path data-name="Path 7" d="M19.605 40.148l.546-.648a2.376 2.376 0 001.629.671c.56 0 .914-.258.914-.649v-.015c0-.368-.206-.568-1.164-.789-1.1-.265-1.718-.59-1.718-1.541v-.015a1.578 1.578 0 011.762-1.5 2.86 2.86 0 011.872.649l-.486.686a2.343 2.343 0 00-1.4-.531c-.531 0-.84.273-.84.612v.015c0 .4.236.575 1.224.811 1.091.265 1.658.656 1.658 1.511v.015c0 .966-.759 1.54-1.843 1.54a3.178 3.178 0 01-2.154-.822z"/><path data-name="Path 8" d="M24.249 40.148l.545-.648a2.376 2.376 0 001.629.671c.56 0 .914-.258.914-.649v-.015c0-.368-.206-.568-1.165-.789-1.1-.265-1.717-.59-1.717-1.541v-.015a1.578 1.578 0 011.762-1.5 2.86 2.86 0 011.872.649l-.486.686a2.343 2.343 0 00-1.4-.531c-.531 0-.84.273-.84.612v.015c0 .4.236.575 1.223.811 1.091.265 1.659.656 1.659 1.511v.015c0 .966-.759 1.54-1.843 1.54a3.178 3.178 0 01-2.153-.822z"/><path data-name="Path 9" d="M31.03 35.704h.84l2.27 5.2h-.958l-.523-1.246h-2.44l-.531 1.246h-.929zm1.3 3.147l-.892-2.064-.884 2.064z"/><path data-name="Path 10" d="M37.235 35.739h3.84v.826h-2.934v1.408h2.6v.825h-2.6v2.1h-.907z"/><path data-name="Path 11" d="M41.798 38.335v-.015a2.644 2.644 0 012.7-2.668 2.619 2.619 0 012.69 2.654v.015a2.644 2.644 0 01-2.7 2.668 2.619 2.619 0 01-2.69-2.654zm4.445 0v-.015a1.768 1.768 0 00-1.754-1.835 1.744 1.744 0 00-1.74 1.821v.015a1.768 1.768 0 001.754 1.835 1.744 1.744 0 001.74-1.821zm-2.963-3.921h.921v.826h-.921zm1.518 0h.914v.826h-.914z"/><path data-name="Path 12" d="M48.291 35.739h2.3a2.079 2.079 0 011.489.516 1.56 1.56 0 01.427 1.113v.015a1.548 1.548 0 01-1.231 1.563l1.393 1.953H51.6l-1.268-1.8h-1.135v1.8h-.907zm2.233 2.558c.649 0 1.061-.339 1.061-.862v-.015c0-.553-.4-.855-1.069-.855h-1.319v1.732z"/><path data-name="Path 13" d="M55.484 40.148l.545-.648a2.376 2.376 0 001.629.671c.56 0 .914-.258.914-.649v-.015c0-.368-.206-.568-1.164-.789-1.1-.265-1.718-.59-1.718-1.541v-.015a1.578 1.578 0 011.762-1.5 2.86 2.86 0 011.872.649l-.486.686a2.343 2.343 0 00-1.4-.531c-.531 0-.84.273-.84.612v.015c0 .4.236.575 1.224.811 1.091.265 1.658.656 1.658 1.511v.015c0 .966-.759 1.54-1.843 1.54a3.177 3.177 0 01-2.153-.822z"/><path data-name="Path 14" d="M60.548 35.739h.966l1.57 2.44 1.57-2.44h.966v5.16h-.907v-3.7l-1.629 2.432h-.029l-1.614-2.418v3.686h-.892z"/><path data-name="Path 15" d="M69.193 34.628a.824.824 0 01.877.781.732.732 0 01-.324.6l2.138 4.887h-.958l-.523-1.246h-2.44l-.531 1.246h-.929l2.13-4.887a.744.744 0 01-.317-.6.824.824 0 01.877-.781zm.877 4.223l-.892-2.064-.885 2.064zm-.877-3.015a.446.446 0 00.479-.427.442.442 0 00-.479-.428.435.435 0 00-.472.428.439.439 0 00.472.428z"/><path data-name="Path 16" d="M72.768 35.739h3.84v.826h-2.934v1.408h2.6v.825h-2.6v2.1h-.907z"/><path data-name="Path 17" d="M77.33 38.335v-.015a2.644 2.644 0 012.7-2.668 2.619 2.619 0 012.69 2.654v.015a2.644 2.644 0 01-2.7 2.668 2.619 2.619 0 01-2.69-2.654zm4.445 0v-.015a1.768 1.768 0 00-1.754-1.835 1.744 1.744 0 00-1.74 1.821v.015a1.768 1.768 0 001.754 1.835 1.744 1.744 0 001.74-1.821zm-2.963-3.921h.921v.826h-.921zm1.518 0h.914v.826h-.914z"/><path data-name="Path 18" d="M83.823 35.739h2.3a2.079 2.079 0 011.489.516 1.56 1.56 0 01.427 1.113v.015a1.548 1.548 0 01-1.231 1.563l1.393 1.953h-1.069l-1.268-1.8h-1.135v1.8h-.907zm2.233 2.558c.649 0 1.061-.339 1.061-.862v-.015c0-.553-.4-.855-1.069-.855h-1.319v1.732z"/><path data-name="Path 19" d="M89.152 35.739h3.825v.811h-2.919v1.342h2.587v.811h-2.587v1.386h2.956v.811h-3.862z"/><path data-name="Path 20" d="M95.358 36.581H93.72v-.84h4.186v.84H96.27V40.9h-.914z"/><path data-name="Path 21" d="M100.031 35.704h.84l2.27 5.2h-.957l-.523-1.246h-2.44l-.531 1.246h-.929zm1.3 3.147l-.894-2.064-.885 2.064z"/><path data-name="Path 22" d="M103.48 38.335v-.015a2.629 2.629 0 012.661-2.668 2.787 2.787 0 011.983.7l-.575.686a2.021 2.021 0 00-1.445-.553 1.745 1.745 0 00-1.673 1.821v.015a1.723 1.723 0 001.754 1.843 2.106 2.106 0 001.246-.391v-.966h-1.32v-.789h2.2v2.167a3.289 3.289 0 01-2.152.8 2.56 2.56 0 01-2.679-2.65z"/><path data-name="Path 23" d="M111.315 35.704h.84l2.27 5.2h-.958l-.523-1.246h-2.44l-.531 1.246h-.928zm1.3 3.147l-.894-2.064-.884 2.064z"/><path data-name="Path 24" d="M115.31 35.739h2.3a2.079 2.079 0 011.489.516 1.559 1.559 0 01.428 1.113v.015a1.548 1.548 0 01-1.231 1.563l1.393 1.953h-1.069l-1.268-1.8h-1.135v1.8h-.907zm2.233 2.558c.649 0 1.061-.339 1.061-.862v-.015c0-.553-.4-.855-1.069-.855h-1.318v1.732z"/><path data-name="Path 25" d="M120.638 35.739h3.825v.811h-2.918v1.342h2.587v.811h-2.587v1.386h2.956v.811h-3.863z"/></g></svg>