<svg xmlns="http://www.w3.org/2000/svg" width="18" height="12.254"><g data-name="Group 517"><g data-name="Rectangle 251"><path data-name="Path 261" d="M.7 5.492h16.6a.67.67 0 01.7.635.67.67 0 01-.7.635H.7a.671.671 0 01-.7-.635.67.67 0 01.7-.635z" fill="#fff"/><path data-name="Path 262" d="M.7 5.946h16.6a.191.191 0 01.2.182h0a.191.191 0 01-.2.182H.7a.192.192 0 01-.2-.182h0a.191.191 0 01.2-.182z" fill="none" stroke="#1c1c1b"/></g><g data-name="Rectangle 252"><path data-name="Path 263" d="M.7.046h16.6a.67.67 0 01.7.635.67.67 0 01-.7.635H.7A.671.671 0 010 .681.67.67 0 01.7.046z" fill="#fff"/><path data-name="Path 264" d="M.7.5h16.6a.191.191 0 01.2.182h0a.191.191 0 01-.2.181H.7A.192.192 0 01.5.682h0A.191.191 0 01.7.5z" fill="none" stroke="#1c1c1b"/></g><g data-name="Rectangle 253"><path data-name="Path 265" d="M.7 10.937h16.6a.67.67 0 01.7.635.67.67 0 01-.7.635H.7a.671.671 0 01-.7-.635.67.67 0 01.7-.635z" fill="#fff"/><path data-name="Path 266" d="M.7 11.391h16.6a.191.191 0 01.2.182h0a.192.192 0 01-.2.182H.7a.192.192 0 01-.2-.182h0a.191.191 0 01.2-.182z" fill="none" stroke="#1c1c1b"/></g></g></svg>