<svg xmlns="http://www.w3.org/2000/svg" width="41.032" height="41.032"><g data-name="Group 434"><g data-name="Path 221" fill="none"><path d="M20.516 0A20.516 20.516 0 110 20.516 20.516 20.516 0 0120.516 0z"/><path d="M20.516 1.2A19.253 19.253 0 006.858 6.858 19.253 19.253 0 001.2 20.516a19.253 19.253 0 005.658 13.658 19.253 19.253 0 0013.658 5.658 19.253 19.253 0 0013.658-5.658 19.253 19.253 0 005.658-13.658 19.253 19.253 0 00-5.658-13.658A19.253 19.253 0 0020.516 1.2m0-1.2c11.33 0 20.516 9.185 20.516 20.516 0 11.33-9.185 20.516-20.516 20.516C9.186 41.032 0 31.847 0 20.516 0 9.186 9.185 0 20.516 0z" fill="#f18e00"/></g><g data-name="noun_Piggy Bank_292190"><g data-name="Group 286"><g data-name="Group 285"><g data-name="Group 284" fill="#f18e00" transform="translate(9.527 8.814)"><path data-name="Path 218" d="M10.186 4.01a2.288 2.288 0 01-.107-.71 2.2 2.2 0 114.4 0 2.393 2.393 0 01-.355 1.207 8.831 8.831 0 011.029.39 3.454 3.454 0 00.426-1.597 3.3 3.3 0 10-6.6 0 3.025 3.025 0 00.106.816c.355-.035.71-.07 1.101-.106z"/><circle data-name="Ellipse 42" cx=".745" cy=".745" r=".745" transform="translate(5.288 9.192)"/><path data-name="Path 219" d="M22.713 8.482a.546.546 0 00-.532-.532.523.523 0 00-.532.532 2.433 2.433 0 01-2.236 2.413c-.781-3.478-4.33-6.1-8.624-6.1a10.319 10.319 0 00-2.342.284 3.626 3.626 0 00-5.359-.248 1.021 1.021 0 00-.319.745.967.967 0 00.319.745L4.153 7.35a9.417 9.417 0 00-1.7 2.555H1.6A1.652 1.652 0 000 11.428v2.2a1.747 1.747 0 001.6 1.6h1.026a20.229 20.229 0 001.207 1.7l-.71 2.555a1.036 1.036 0 00.745 1.279l3.655.958a.781.781 0 00.284.035 1.1 1.1 0 001.029-.781l.355-1.349a11.544 11.544 0 001.562.106c.39 0 .816-.035 1.207-.071l.355 1.278a1.068 1.068 0 001.029.781.781.781 0 00.284-.035l3.655-.994a1 1 0 00.639-.5 1.087 1.087 0 00.106-.816l-.6-2.307a6.753 6.753 0 002.129-4.9v-.355a3.3 3.3 0 003.156-3.33zm-6.459 8.3l.781 2.91-3.655.994-.6-2.236a9.215 9.215 0 01-1.987.213 8.485 8.485 0 01-2.342-.319l-.6 2.307-3.663-.989.852-3.088a7.713 7.713 0 01-1.668-2.449H1.6a.736.736 0 01-.532-.532v-2.2c0-.213.355-.461.532-.461h1.6a6.281 6.281 0 012.484-3.584L3.8 5.462a2.547 2.547 0 011.81-.745 2.6 2.6 0 012.34 1.494 9.1 9.1 0 012.8-.461c4.259 0 7.7 2.875 7.7 6.424a5.736 5.736 0 01-2.196 4.613z"/></g></g></g></g></g></svg>