<svg xmlns="http://www.w3.org/2000/svg" width="41.032" height="41.032"><g data-name="Group 433"><g data-name="Path 221" fill="none"><path d="M20.516 0A20.516 20.516 0 110 20.516 20.516 20.516 0 0120.516 0z"/><path d="M20.516 1.2A19.253 19.253 0 006.858 6.858 19.253 19.253 0 001.2 20.516a19.253 19.253 0 005.658 13.658 19.253 19.253 0 0013.658 5.658 19.253 19.253 0 0013.658-5.658 19.253 19.253 0 005.658-13.658 19.253 19.253 0 00-5.658-13.658A19.253 19.253 0 0020.516 1.2m0-1.2c11.33 0 20.516 9.185 20.516 20.516 0 11.33-9.185 20.516-20.516 20.516C9.186 41.032 0 31.847 0 20.516 0 9.186 9.185 0 20.516 0z" fill="#f18e00"/></g><g data-name="Group 298"><path data-name="Path 222" d="M21.311 12.53v-.023a.636.636 0 10-1.273 0v.023c-4.265.276-7.637 3.299-7.637 6.978a.637.637 0 00.636.636h.111a.636.636 0 00.6-.424 1.271 1.271 0 012.259-.278.636.636 0 001.06 0 1.271 1.271 0 012.259.278.636.636 0 00.6.424h.111v6.364a.636.636 0 11-1.273 0 .636.636 0 10-1.273 0 1.909 1.909 0 003.818 0v-6.364h.111a.636.636 0 00.6-.424 1.271 1.271 0 012.259-.279.636.636 0 001.06 0 1.271 1.271 0 012.26.278.636.636 0 00.6.424h.111a.637.637 0 00.636-.636c.002-3.678-3.37-6.701-7.635-6.977zm5.09 5.069a2.538 2.538 0 00-1.591.558 2.543 2.543 0 00-3.793.714h-.686a2.543 2.543 0 00-3.793-.714 2.54 2.54 0 00-2.54-.374c.9-2.318 3.55-4 6.676-4s5.78 1.685 6.676 4a2.535 2.535 0 00-.949-.184z" fill="#f18e00"/></g></g></svg>