<svg xmlns="http://www.w3.org/2000/svg" width="41.032" height="41.032"><g data-name="Group 432" fill="none"><g data-name="Path 221"><path d="M20.516 0A20.516 20.516 0 110 20.516 20.516 20.516 0 0120.516 0z"/><path d="M20.516 1.2A19.253 19.253 0 006.858 6.858 19.253 19.253 0 001.2 20.516a19.253 19.253 0 005.658 13.658 19.253 19.253 0 0013.658 5.658 19.253 19.253 0 0013.658-5.658 19.253 19.253 0 005.658-13.658 19.253 19.253 0 00-5.658-13.658A19.253 19.253 0 0020.516 1.2m0-1.2c11.33 0 20.516 9.185 20.516 20.516 0 11.33-9.185 20.516-20.516 20.516C9.186 41.032 0 31.847 0 20.516 0 9.186 9.185 0 20.516 0z" fill="#f18e00"/></g><g data-name="Group 220" transform="translate(13.121 13.452)" stroke="#f18e00" stroke-width="1.2"><path data-name="Path 102" d="M14.708 14.965a7.354 7.354 0 00-14.709 0H4.34v-.072a2.978 2.978 0 015.956 0v.072z"/><circle data-name="Ellipse 25" cx="3.014" cy="3.014" transform="translate(4.341)" r="3.014"/></g></g></svg>