<svg xmlns="http://www.w3.org/2000/svg" width="10.828" height="12.442"><g data-name="Group 519"><g data-name="Group 516"><g data-name="Ellipse 49"><g data-name="Group 511"><circle data-name="Ellipse 55" cx="2.707" cy="2.707" r="2.707" transform="translate(2.702)" fill="none"/></g><g data-name="Group 512"><path data-name="Path 257" d="M5.409 5.414a2.707 2.707 0 112.707-2.707 2.707 2.707 0 01-2.707 2.707zm0-4.115a1.408 1.408 0 101.408 1.408 1.408 1.408 0 00-1.408-1.408z" fill="#1c1c1b"/></g></g><g data-name="Ellipse 54"><g data-name="Group 513"><path data-name="Path 258" d="M10.829 11.911a4.5 4.5 0 01-.032.531H.029a3.906 3.906 0 01-.033-.531 5.406 5.406 0 019.236-3.822 5.146 5.146 0 01.509.585 5.4 5.4 0 01.433.661c.075.152.151.314.227.466a6.531 6.531 0 01.314 1.018 6.136 6.136 0 01.114 1.092z" fill="none"/></g><g data-name="Group 514"><path data-name="Path 259" d="M10.719 10.817a6.529 6.529 0 00-.314-1.018c-.076-.152-.152-.314-.227-.466a5.29 5.29 0 00-.433-.661 5.152 5.152 0 00-.509-.585A5.406 5.406 0 000 11.909a4.26 4.26 0 00.033.531h1.418a2.851 2.851 0 01-.043-.531 4.006 4.006 0 118.013 0 2.872 2.872 0 01-.043.531h1.418a4.3 4.3 0 00.032-.531 6.046 6.046 0 00-.109-1.092z" fill="#1c1c1b"/></g></g></g></g></svg>