<svg xmlns="http://www.w3.org/2000/svg" width="41.032" height="41.032"><g data-name="Group 435"><g data-name="Path 221" fill="none"><path d="M20.516 0A20.516 20.516 0 110 20.516 20.516 20.516 0 0120.516 0z"/><path d="M20.516 1.2A19.253 19.253 0 006.858 6.858 19.253 19.253 0 001.2 20.516a19.253 19.253 0 005.658 13.658 19.253 19.253 0 0013.658 5.658 19.253 19.253 0 0013.658-5.658 19.253 19.253 0 005.658-13.658 19.253 19.253 0 00-5.658-13.658A19.253 19.253 0 0020.516 1.2m0-1.2c11.33 0 20.516 9.185 20.516 20.516 0 11.33-9.185 20.516-20.516 20.516C9.186 41.032 0 31.847 0 20.516 0 9.186 9.185 0 20.516 0z" fill="#f18e00"/></g><g fill="#f18e00"><path data-name="Compound Path" d="M28.829 23.878a.569.569 0 00-.569-.569h-2.35l-.056-7.372a2.085 2.085 0 00-2.085-2.066h-9.23a2.085 2.085 0 00-2.085 2.085v9.306a2.71 2.71 0 002.71 2.729h11.05a2.71 2.71 0 002.616-2.729zm-13.665 2.976a1.573 1.573 0 01-1.573-1.573v-9.325a.948.948 0 01.948-.948h9.215a.948.948 0 01.948.948l.057 7.373h-7.43a.569.569 0 00-.569.569v1.383a1.573 1.573 0 01-1.596 1.573zm12.528-1.573a1.573 1.573 0 01-1.573 1.573h-8.737a2.691 2.691 0 00.512-1.573v-.834h9.8z"/><path d="M15.107 16.354h4.454v1.137h-4.454z"/><path data-name="Path" d="M15.107 18.628h8.245v1.137h-8.245zm0 2.275h8.245v1.137h-8.245z"/></g></g></svg>