<svg xmlns="http://www.w3.org/2000/svg" width="11.099" height="12.163"><g data-name="Group 518"><g data-name="Rectangle 254" fill="#1c1c1b"><path data-name="Path 267" d="M8.174 7.898l2.732 3.01a.742.742 0 01-.055 1.053.757.757 0 01-1.063-.055l-2.732-3.01 1.118-1z"/><path data-name="Path 268" d="M8.278 8.809l2.229 2.455a.212.212 0 01-.016.3h0a.216.216 0 01-.3-.015L7.962 9.093a.212.212 0 01.015-.3h0a.216.216 0 01.301.016z" stroke="#1c1c1b"/></g><g data-name="Ellipse 56" fill="none" transform="translate(-2851.497 -353.275)"><circle data-name="Ellipse 57" cx="5" cy="5" r="5" transform="translate(2851.497 353.275)"/><circle data-name="Ellipse 58" cx="4.35" cy="4.35" r="4.35" transform="translate(2852.147 353.925)" stroke="#1c1c1b" stroke-width="1.3"/></g></g></svg>