<svg xmlns="http://www.w3.org/2000/svg" width="13.692" height="13.692"><g data-name="Group 519"><g data-name="Group 518"><g data-name="Rectangle 251"><path data-name="Path 261" d="M1.426.528l11.738 11.738a.67.67 0 01.046.944.67.67 0 01-.944-.046L.528 1.426A.671.671 0 01.482.482a.67.67 0 01.944.046z" fill="#fff"/><path data-name="Path 262" d="M1.105.849l11.738 11.738a.191.191 0 01.012.27h0a.191.191 0 01-.27-.013L.847 1.106a.192.192 0 01-.012-.27h0a.191.191 0 01.27.013z" fill="none" stroke="#1c1c1b"/></g><g data-name="Rectangle 251"><path data-name="Path 261" d="M.528 12.266L12.266.528a.67.67 0 01.944-.046.67.67 0 01-.046.944L1.426 13.164a.671.671 0 01-.944.046.67.67 0 01.046-.944z" fill="#fff"/><path data-name="Path 262" d="M.849 12.587L12.587.849a.191.191 0 01.27-.013h0a.191.191 0 01-.013.27L1.106 12.844a.192.192 0 01-.27.013h0a.191.191 0 01.013-.27z" fill="none" stroke="#1c1c1b"/></g></g></g></svg>